<?xml version="1.0" encoding="utf-8"?>
<!-- Generator: Adobe Illustrator 21.0.0, SVG Export Plug-In . SVG Version: 6.00 Build 0)  -->
<svg version="1.1" id="Layer_1" xmlns="http://www.w3.org/2000/svg" xmlns:xlink="http://www.w3.org/1999/xlink" x="0px" y="0px"
	 viewBox="0 0 60 40" style="enable-background:new 0 0 60 40;" xml:space="preserve">
<style type="text/css">
	.st0{fill:none;stroke:#000000;stroke-width:2;stroke-linecap:round;stroke-linejoin:round;stroke-miterlimit:10;}
</style>
<g>
	<line class="st0" x1="55" y1="27" x2="59" y2="27"/>
	<path class="st0" d="M53,33h2c2.2,0,4-1.8,4-4v-7.3c0-1.1-0.4-2.1-1.2-2.8l-7.5-7.5C48.8,9.8,46.8,9,44.7,9H37v24h6"/>
	<path class="st0" d="M19,33h18V7c0-3.3-2.7-6-6-6H7C3.7,1,1,3.7,1,7v20c0,3.3,2.7,6,6,6h2"/>
	<polyline class="st0" points="52,13 41,13 41,21 58.9,21 	"/>
	<circle class="st0" cx="14" cy="34" r="5"/>
	<circle class="st0" cx="14" cy="34" r="1"/>
	<circle class="st0" cx="48" cy="34" r="1"/>
	<circle class="st0" cx="48" cy="34" r="5"/>
	<line class="st0" x1="1" y1="25" x2="37" y2="25"/>
	<line class="st0" x1="5" y1="21" x2="5" y2="25"/>
	<line class="st0" x1="9" y1="21" x2="9" y2="25"/>
	<line class="st0" x1="13" y1="21" x2="13" y2="25"/>
	<line class="st0" x1="17" y1="21" x2="17" y2="25"/>
	<line class="st0" x1="21" y1="21" x2="21" y2="25"/>
	<line class="st0" x1="25" y1="21" x2="25" y2="25"/>
	<line class="st0" x1="29" y1="21" x2="29" y2="25"/>
	<line class="st0" x1="33" y1="21" x2="33" y2="25"/>
</g>
</svg>
