<?xml version="1.0" encoding="UTF-8"?>
<svg version="1.1" id="Слой_1" xmlns="http://www.w3.org/2000/svg" xmlns:xlink="http://www.w3.org/1999/xlink" x="0px" y="0px" viewBox="0 0 360 116" width="200px" style="enable-background:new 0 0 360 116;" xml:space="preserve">
<style type="text/css">
	.st0{fill:#0D44A2;}
	.st1{fill:#DC1A37;}
</style>
<g>
	<g>
		<path class="st0" d="M152.7,28.8c0.4,0,0.5,0.2,0.5,0.5v24.3c0,0.4-0.2,0.5-0.5,0.5h-2.4c-0.4,0-0.5-0.2-0.5-0.5V34.1h-0.2    l-13,19.6c-0.2,0.4-0.5,0.5-1.1,0.5h-2.7c-0.4,0-0.5-0.1-0.5-0.5V29.4c0-0.4,0.2-0.5,0.5-0.5h2.4c0.4,0,0.5,0.2,0.5,0.5v19.6h0.2    l13-19.6c0.2-0.4,0.5-0.5,1.1-0.5H152.7z"/>
		<path class="st0" d="M162.8,46.2v7.4c0,0.4-0.2,0.5-0.5,0.5h-2c-0.4,0-0.5-0.2-0.5-0.5V36.3c0-0.4,0.2-0.5,0.5-0.5h2    c0.4,0,0.5,0.2,0.5,0.5v7.2h9.2v-7.2c0-0.4,0.2-0.5,0.5-0.5h2c0.4,0,0.5,0.2,0.5,0.5v17.4c0,0.4-0.2,0.5-0.5,0.5h-2    c-0.4,0-0.5-0.2-0.5-0.5v-7.4H162.8z"/>
		<path class="st0" d="M196.4,45.9H193v7.8c0,0.4-0.2,0.5-0.5,0.5h-2c-0.4,0-0.5-0.2-0.5-0.5v-7.8h-3.4l-4.2,7.8    c-0.2,0.4-0.4,0.5-0.9,0.5h-2.2c-0.4,0-0.5-0.2-0.4-0.5l5.1-9.2l-4.5-8.2c-0.2-0.4,0-0.5,0.4-0.5h2.2c0.5,0,0.7,0.2,0.9,0.5    l3.6,6.7h3.4v-6.7c0-0.4,0.2-0.5,0.5-0.5h2c0.4,0,0.5,0.2,0.5,0.5V43h3.4l3.6-6.7c0.2-0.4,0.4-0.5,0.9-0.5h2.2    c0.4,0,0.5,0.2,0.4,0.5l-4.5,8.2l5.1,9.2c0.2,0.4,0,0.5-0.4,0.5h-2.2c-0.5,0-0.7-0.2-0.9-0.5L196.4,45.9z"/>
		<path class="st0" d="M210.1,46.2v2.7c0,1.6,1.1,2.7,2.7,2.7h4.3c1.6,0,2.7-1.1,2.7-2.7v-0.2c0-0.4,0.2-0.5,0.5-0.5h2    c0.4,0,0.5,0.2,0.5,0.5v0.2c0,3.6-2,5.6-5.8,5.6h-4.3c-3.8,0-5.8-2-5.8-5.6v-8c0-3.6,2-5.6,5.8-5.6h4.3c3.8,0,5.8,2,5.8,5.6v4.7    c0,0.4-0.2,0.5-0.5,0.5H210.1z M219.9,43.3V41c0-1.6-1.1-2.7-2.7-2.7h-4.3c-1.6,0-2.7,1.1-2.7,2.7v2.4H219.9z"/>
		<path class="st0" d="M231.5,46.2v7.4c0,0.4-0.2,0.5-0.5,0.5h-2c-0.4,0-0.5-0.2-0.5-0.5V36.3c0-0.4,0.2-0.5,0.5-0.5h2    c0.4,0,0.5,0.2,0.5,0.5v7.2h9.2v-7.2c0-0.4,0.2-0.5,0.5-0.5h2c0.4,0,0.5,0.2,0.5,0.5v17.4c0,0.4-0.2,0.5-0.5,0.5h-2    c-0.4,0-0.5-0.2-0.5-0.5v-7.4H231.5z"/>
		<path class="st0" d="M252.3,46.2v2.7c0,1.6,1.1,2.7,2.7,2.7h4.3c1.6,0,2.7-1.1,2.7-2.7v-0.2c0-0.4,0.2-0.5,0.5-0.5h2    c0.4,0,0.5,0.2,0.5,0.5v0.2c0,3.6-2,5.6-5.8,5.6H255c-3.8,0-5.8-2-5.8-5.6v-8c0-3.6,2-5.6,5.8-5.6h4.3c3.8,0,5.8,2,5.8,5.6v4.7    c0,0.4-0.2,0.5-0.5,0.5H252.3z M262.1,43.3V41c0-1.6-1.1-2.7-2.7-2.7H255c-1.6,0-2.7,1.1-2.7,2.7v2.4H262.1z"/>
		<path class="st0" d="M273.7,54.2v6.3c0,0.4-0.2,0.5-0.5,0.5h-2c-0.4,0-0.5-0.2-0.5-0.5V36.3c0-0.4,0.2-0.5,0.5-0.5h2    c0.4,0,0.5,0.2,0.5,0.5v1.3h0.2c0,0,0.9-2.2,4-2.2h2.7c3.8,0,5.8,2,5.8,5.6v7.6c0,3.6-2,5.6-5.8,5.6H273.7z M280.6,51.3    c1.6,0,2.7-1.1,2.7-2.7V41c0-1.6-1.1-2.7-2.7-2.7h-3.1c-2.2,0-3.8,1.6-3.8,3.8v9.2H280.6z"/>
		<path class="st0" d="M294.9,46.2v7.4c0,0.4-0.2,0.5-0.5,0.5h-2c-0.4,0-0.5-0.2-0.5-0.5V36.3c0-0.4,0.2-0.5,0.5-0.5h2    c0.4,0,0.5,0.2,0.5,0.5v7.2h9.2v-7.2c0-0.4,0.2-0.5,0.5-0.5h2c0.4,0,0.5,0.2,0.5,0.5v17.4c0,0.4-0.2,0.5-0.5,0.5h-2    c-0.4,0-0.5-0.2-0.5-0.5v-7.4H294.9z"/>
		<path class="st0" d="M312.3,48.6c0-3.4,1.8-5.3,5.4-5.3h6.7V41c0-1.6-1.1-2.7-2.7-2.7h-2.5c-1.6,0-2.7,1.1-2.7,2.7    c0,0.4-0.2,0.5-0.5,0.5h-2c-0.4,0-0.5-0.2-0.5-0.5c0-3.6,2-5.6,5.8-5.6h2.5c3.8,0,5.8,2,5.8,5.6v12.7c0,0.4-0.2,0.5-0.5,0.5h-2    c-0.4,0-0.5-0.2-0.5-0.5v-1.3h-0.2c0,0-0.9,2.2-4,2.2h-2.5c-3.6,0-5.4-1.8-5.4-5.3V48.6z M315.4,49.3c0,1.4,0.9,2.4,2.4,2.4h2.9    c2.2,0,3.8-1.6,3.8-3.8v-1.6h-6.7c-1.4,0-2.4,0.9-2.4,2.4V49.3z"/>
		<path class="st0" d="M346.6,35.7c0.4,0,0.5,0.2,0.5,0.5v17.4c0,0.4-0.2,0.5-0.5,0.5h-2c-0.4,0-0.5-0.2-0.5-0.5V48h-5.3l-3.1,5.6    c-0.2,0.4-0.4,0.5-0.9,0.5h-2.2c-0.4,0-0.6-0.2-0.4-0.5l3.3-6c0,0-3.3-0.5-3.3-4.9V41c0-3.4,1.8-5.3,5.4-5.3H346.6z M335.4,41v1.8    c0,1.4,0.9,2.4,2.4,2.4h6.3v-6.5h-6.3C336.3,38.6,335.4,39.5,335.4,41z"/>
		<path class="st0" d="M134.2,82.4c0,1.6,1.1,2.7,2.7,2.7h4.2c1.6,0,2.7-1.1,2.7-2.7v-0.9c0-0.4,0.2-0.5,0.5-0.5h2    c0.4,0,0.5,0.2,0.5,0.5v0.9c0,3.6-2,5.6-5.8,5.6h-4.2c-3.8,0-5.8-2-5.8-5.6v-8c0-3.6,2-5.6,5.8-5.6h4.2c3.8,0,5.8,2,5.8,5.6v0.9    c0,0.4-0.2,0.5-0.5,0.5h-2c-0.4,0-0.5-0.2-0.5-0.5v-0.9c0-1.6-1.1-2.7-2.7-2.7h-4.2c-1.6,0-2.7,1.1-2.7,2.7V82.4z"/>
		<path class="st0" d="M151.2,82c0-3.4,1.8-5.3,5.4-5.3h6.7v-2.4c0-1.6-1.1-2.7-2.7-2.7h-2.5c-1.6,0-2.7,1.1-2.7,2.7    c0,0.4-0.2,0.5-0.5,0.5h-2c-0.4,0-0.5-0.2-0.5-0.5c0-3.6,2-5.6,5.8-5.6h2.5c3.8,0,5.8,2,5.8,5.6v12.7c0,0.4-0.2,0.5-0.5,0.5h-2    c-0.4,0-0.5-0.2-0.5-0.5v-1.3h-0.2c0,0-0.9,2.2-4,2.2h-2.5c-3.6,0-5.4-1.8-5.4-5.3V82z M154.3,82.8c0,1.5,0.9,2.4,2.4,2.4h2.9    c2.2,0,3.8-1.6,3.8-3.8v-1.6h-6.7c-1.4,0-2.4,0.9-2.4,2.4V82.8z"/>
		<path class="st0" d="M175.3,79.7v7.4c0,0.4-0.2,0.5-0.5,0.5h-2c-0.4,0-0.5-0.2-0.5-0.5V69.7c0-0.4,0.2-0.5,0.5-0.5h2    c0.4,0,0.5,0.2,0.5,0.5V77h9.2v-7.2c0-0.4,0.2-0.5,0.5-0.5h2c0.4,0,0.5,0.2,0.5,0.5v17.4c0,0.4-0.2,0.5-0.5,0.5h-2    c-0.4,0-0.5-0.2-0.5-0.5v-7.4H175.3z"/>
		<path class="st0" d="M197.6,87.6c-0.4,0-0.5-0.2-0.5-0.5v-15h-5.6c-0.4,0-0.5-0.2-0.5-0.5v-1.8c0-0.4,0.2-0.5,0.5-0.5h14.3    c0.4,0,0.5,0.2,0.5,0.5v1.8c0,0.4-0.2,0.5-0.5,0.5h-5.6v15c0,0.4-0.2,0.5-0.5,0.5H197.6z"/>
		<path class="st0" d="M212.3,79.7v2.7c0,1.6,1.1,2.7,2.7,2.7h4.3c1.6,0,2.7-1.1,2.7-2.7v-0.2c0-0.4,0.2-0.5,0.5-0.5h2    c0.4,0,0.5,0.2,0.5,0.5v0.2c0,3.6-2,5.6-5.8,5.6H215c-3.8,0-5.8-2-5.8-5.6v-8c0-3.6,2-5.6,5.8-5.6h4.3c3.8,0,5.8,2,5.8,5.6v4.7    c0,0.4-0.2,0.5-0.5,0.5H212.3z M222.1,76.8v-2.4c0-1.6-1.1-2.7-2.7-2.7H215c-1.6,0-2.7,1.1-2.7,2.7v2.4H222.1z"/>
		<path class="st0" d="M236.3,75.9l4-6.2c0.2-0.4,0.4-0.5,0.9-0.5h2.2c0.4,0,0.6,0.2,0.4,0.5l-5.4,8.3l6,9.1c0.2,0.3,0,0.5-0.4,0.5    h-2.2c-0.5,0-0.7-0.2-0.9-0.5l-4.5-6.9l-4.5,6.9c-0.2,0.4-0.4,0.5-0.9,0.5h-2.2c-0.4,0-0.6-0.2-0.4-0.5l6-9.1l-5.4-8.3    c-0.2-0.4,0-0.5,0.4-0.5h2.2c0.5,0,0.7,0.2,0.9,0.5L236.3,75.9z"/>
		<path class="st0" d="M250.9,79.7v7.4c0,0.4-0.2,0.5-0.5,0.5h-2c-0.4,0-0.5-0.2-0.5-0.5V69.7c0-0.4,0.2-0.5,0.5-0.5h2    c0.4,0,0.5,0.2,0.5,0.5V77h9.2v-7.2c0-0.4,0.2-0.5,0.5-0.5h2c0.4,0,0.5,0.2,0.5,0.5v17.4c0,0.4-0.2,0.5-0.5,0.5h-2    c-0.4,0-0.5-0.2-0.5-0.5v-7.4H250.9z"/>
		<path class="st0" d="M284.3,69.2c0.4,0,0.5,0.2,0.5,0.5v17.4c0,0.4-0.2,0.5-0.5,0.5h-2c-0.4,0-0.5-0.2-0.5-0.5V73.9h-0.2    l-8.7,13.2c-0.2,0.4-0.4,0.5-1.1,0.5h-2.2c-0.4,0-0.5-0.2-0.5-0.5V69.7c0-0.4,0.2-0.5,0.5-0.5h2c0.4,0,0.5,0.2,0.5,0.5v13.2h0.2    l8.7-13.2c0.2-0.4,0.4-0.5,1.1-0.5H284.3z"/>
		<path class="st0" d="M298.2,79.3h-4.5v7.8c0,0.4-0.2,0.5-0.5,0.5h-2c-0.4,0-0.5-0.2-0.5-0.5V69.7c0-0.4,0.2-0.5,0.5-0.5h2    c0.4,0,0.5,0.2,0.5,0.5v6.7h4.5l3.6-6.7c0.2-0.4,0.4-0.5,0.9-0.5h2.2c0.4,0,0.5,0.2,0.4,0.5l-4.5,8.2l5.1,9.2    c0.2,0.4,0,0.5-0.4,0.5h-2.2c-0.5,0-0.7-0.2-0.9-0.5L298.2,79.3z"/>
		<path class="st0" d="M308.4,82c0-3.4,1.8-5.3,5.4-5.3h6.7v-2.4c0-1.6-1.1-2.7-2.7-2.7h-2.5c-1.6,0-2.7,1.1-2.7,2.7    c0,0.4-0.2,0.5-0.5,0.5h-2c-0.4,0-0.5-0.2-0.5-0.5c0-3.6,2-5.6,5.8-5.6h2.5c3.8,0,5.8,2,5.8,5.6v12.7c0,0.4-0.2,0.5-0.5,0.5h-2    c-0.4,0-0.5-0.2-0.5-0.5v-1.3h-0.2c0,0-0.9,2.2-4,2.2h-2.5c-3.6,0-5.4-1.8-5.4-5.3V82z M311.5,82.8c0,1.5,0.9,2.4,2.4,2.4h2.9    c2.2,0,3.8-1.6,3.8-3.8v-1.6h-6.7c-1.4,0-2.4,0.9-2.4,2.4V82.8z"/>
	</g>
	<circle class="st0" cx="69.5" cy="33.8" r="4.6"/>
	<circle class="st1" cx="107.6" cy="58.2" r="4.6"/>
	<circle class="st0" cx="25.2" cy="90.3" r="4.6"/>
	<circle class="st1" cx="34.4" cy="58.2" r="4.6"/>
	<path class="st1" d="M60.3,7.9C32.5,7.9,9.9,30.4,9.9,58.2c0,8.7,2.2,17,6.3,24.5c0.8,1.5,2.7,2,4.2,1.2c1.5-0.8,2-2.7,1.2-4.2   C18,73.2,16,65.9,16,58.2C16,33.8,35.9,14,60.3,14c20.7,0,38.5,14.4,43.1,34.3c0.4,1.6,2,2.7,3.7,2.3s2.7-2,2.3-3.7   C104.2,24.2,83.9,7.9,60.3,7.9z"/>
	<path class="st0" d="M60.3,108.6c23.6,0,43.8-16.3,49.1-39c0.4-1.6-0.6-3.3-2.3-3.7c-1.6-0.4-3.3,0.6-3.7,2.3   c-4.6,19.9-22.4,34.2-43.1,34.2c-8.7,0-17.1-2.5-24.2-7.2c-1.4-0.9-3.3-0.5-4.2,0.9s-0.5,3.3,0.9,4.2   C40.9,105.7,50.4,108.6,60.3,108.6z"/>
	<path class="st0" d="M34.2,45.5c-0.7,1.5-0.1,3.3,1.4,4.1c1.5,0.7,3.3,0.1,4.1-1.4c3.4-7,10.1-11.8,17.9-12.7   c1.7-0.2,2.9-1.7,2.7-3.4c-0.2-1.7-1.7-2.9-3.4-2.7C47.1,30.6,38.6,36.7,34.2,45.5z"/>
	<path class="st1" d="M60.3,87.2c16,0,29-13,29-29c0-7.3-2.7-14.3-7.6-19.6c-1.1-1.2-3.1-1.3-4.3-0.2c-1.2,1.1-1.3,3.1-0.2,4.3   c3.8,4.2,6,9.7,6,15.5c0,12.6-10.3,22.9-22.9,22.9c-8.8,0-16.7-5-20.5-12.8c-0.7-1.5-2.6-2.1-4.1-1.4c-1.5,0.7-2.1,2.6-1.4,4.1   C39.1,80.9,49.1,87.2,60.3,87.2z"/>
	<path class="st0" d="M60.3,45.8c-2,5.6-8.8,10.5-8.5,16.2c0,0,0,0,0,0c0,4.7,3.8,8.6,8.5,8.6s8.5-3.9,8.5-8.6c0,0,0,0,0,0   C69.1,56.4,62.3,51.4,60.3,45.8z"/>
</g>
</svg>